<svg width="572" height="572" viewBox="0 0 572 572" fill="none" xmlns="http://www.w3.org/2000/svg">
<rect width="572" height="572" fill="black"/>
<g filter="url(#filter0_d_8_572)">
<path d="M40.6463 482.707C38.5582 482.707 36.7022 482.422 35.0781 481.852C33.4607 481.289 32.0952 480.457 30.9815 479.357C29.8679 478.263 29.0227 476.927 28.446 475.349C27.8693 473.772 27.5777 471.969 27.571 469.94C27.5777 467.958 27.8726 466.172 28.456 464.581C29.0393 462.983 29.8911 461.618 31.0114 460.484C32.1316 459.344 33.5005 458.469 35.1179 457.859C36.7353 457.25 38.5748 456.945 40.6364 456.945C42.5786 456.945 44.2988 457.24 45.7969 457.83C47.3016 458.42 48.571 459.241 49.6051 460.295C50.6458 461.343 51.4313 462.569 51.9616 463.974C52.4986 465.373 52.767 466.891 52.767 468.528C52.767 469.662 52.6809 470.736 52.5085 471.75C52.3362 472.758 52.0412 473.652 51.6236 474.435C51.2126 475.217 50.6525 475.84 49.9432 476.304C49.2339 476.761 48.3456 477.01 47.2784 477.05C46.6089 477.083 46.0223 477.02 45.5185 476.861C45.0147 476.702 44.607 476.453 44.2955 476.115C43.9905 475.77 43.7983 475.349 43.7188 474.852H43.5994C43.447 475.25 43.1586 475.615 42.7344 475.946C42.3168 476.271 41.7997 476.526 41.1832 476.712C40.5668 476.891 39.8807 476.964 39.125 476.93C38.3163 476.891 37.5672 476.705 36.8778 476.374C36.1951 476.036 35.5985 475.565 35.0881 474.962C34.5843 474.352 34.1932 473.616 33.9148 472.754C33.6364 471.893 33.4972 470.915 33.4972 469.821C33.4972 468.754 33.6496 467.812 33.9545 466.997C34.2595 466.182 34.6671 465.486 35.1776 464.909C35.6946 464.332 36.2779 463.882 36.9276 463.557C37.5772 463.225 38.2467 463.013 38.9361 462.92C39.652 462.821 40.3248 462.831 40.9545 462.95C41.5843 463.07 42.108 463.252 42.5256 463.497C42.9498 463.742 43.215 464.011 43.321 464.303H43.4602V463.189H46.2344V472.655C46.241 473.152 46.3603 473.553 46.5923 473.858C46.831 474.163 47.1624 474.315 47.5866 474.315C48.117 474.315 48.5445 474.107 48.8693 473.689C49.2008 473.265 49.4394 472.615 49.5852 471.74C49.7377 470.858 49.8106 469.732 49.804 468.359C49.8106 467.232 49.6615 466.212 49.3565 465.297C49.0582 464.375 48.634 463.567 48.0838 462.871C47.5336 462.175 46.8741 461.595 46.1051 461.131C45.3428 460.66 44.4943 460.305 43.5597 460.067C42.625 459.828 41.6274 459.709 40.5668 459.709C38.9427 459.709 37.5142 459.957 36.2812 460.455C35.0483 460.945 34.0142 461.644 33.179 462.553C32.3504 463.461 31.724 464.538 31.2997 465.784C30.8821 467.024 30.6733 468.396 30.6733 469.901C30.6733 471.511 30.892 472.94 31.3295 474.186C31.7737 475.426 32.4233 476.47 33.2784 477.318C34.1335 478.167 35.1908 478.81 36.4503 479.247C37.7164 479.685 39.1714 479.903 40.8153 479.903C41.571 479.903 42.3101 479.844 43.0327 479.724C43.7552 479.605 44.4048 479.466 44.9815 479.307C45.5582 479.148 46.0024 479.009 46.3139 478.889L47.1591 481.415C46.7481 481.627 46.1913 481.832 45.4886 482.031C44.7926 482.23 44.0237 482.393 43.1818 482.518C42.3466 482.644 41.5014 482.707 40.6463 482.707ZM39.9503 474.077C40.7921 474.077 41.465 473.914 41.9688 473.589C42.4725 473.258 42.8338 472.768 43.0526 472.118C43.2713 471.468 43.3774 470.66 43.3707 469.692C43.3707 468.79 43.2581 468.051 43.0327 467.474C42.8073 466.898 42.446 466.47 41.9489 466.192C41.4517 465.913 40.7921 465.774 39.9702 465.774C39.2277 465.774 38.5947 465.943 38.071 466.281C37.554 466.619 37.1563 467.087 36.8778 467.683C36.6061 468.273 36.4702 468.946 36.4702 469.702C36.4702 470.457 36.5795 471.17 36.7983 471.839C37.0237 472.502 37.3883 473.043 37.892 473.46C38.4025 473.871 39.0885 474.077 39.9503 474.077ZM55.8221 477V461.727H59.2624V464.322H59.4414C59.7596 463.447 60.2866 462.765 61.0224 462.274C61.7582 461.777 62.6365 461.528 63.6573 461.528C64.6914 461.528 65.5631 461.78 66.2724 462.284C66.9883 462.781 67.4921 463.461 67.7837 464.322H67.9428C68.2809 463.474 68.851 462.798 69.6531 462.294C70.4618 461.784 71.4196 461.528 72.5266 461.528C73.9319 461.528 75.0787 461.973 75.967 462.861C76.8552 463.749 77.2994 465.045 77.2994 466.749V477H73.69V467.305C73.69 466.357 73.4381 465.665 72.9343 465.227C72.4305 464.783 71.814 464.561 71.0849 464.561C70.2165 464.561 69.5371 464.833 69.0465 465.376C68.5626 465.913 68.3207 466.613 68.3207 467.474V477H64.7908V467.156C64.7908 466.367 64.5522 465.738 64.0749 465.267C63.6043 464.796 62.9878 464.561 62.2255 464.561C61.7085 464.561 61.2378 464.694 60.8136 464.959C60.3893 465.217 60.0513 465.585 59.7994 466.062C59.5475 466.533 59.4215 467.083 59.4215 467.713V477H55.8221ZM87.7124 477.298C86.1811 477.298 84.8587 476.98 83.745 476.344C82.638 475.701 81.7862 474.793 81.1896 473.619C80.593 472.439 80.2947 471.051 80.2947 469.453C80.2947 467.882 80.593 466.503 81.1896 465.317C81.7929 464.124 82.6347 463.196 83.7152 462.533C84.7957 461.863 86.0651 461.528 87.5234 461.528C88.4647 461.528 89.353 461.681 90.1882 461.986C91.0301 462.284 91.7725 462.748 92.4155 463.378C93.0651 464.008 93.5755 464.81 93.9467 465.784C94.3179 466.752 94.5036 467.905 94.5036 469.244V470.348H81.9851V467.922H91.0533C91.0466 467.232 90.8975 466.619 90.6058 466.082C90.3142 465.539 89.9065 465.111 89.3828 464.8C88.8658 464.488 88.2625 464.332 87.5732 464.332C86.8374 464.332 86.1911 464.511 85.6342 464.869C85.0774 465.221 84.6432 465.685 84.3317 466.261C84.0268 466.831 83.871 467.458 83.8643 468.141V470.259C83.8643 471.147 84.0268 471.909 84.3516 472.545C84.6764 473.175 85.1304 473.659 85.7138 473.997C86.2971 474.329 86.9799 474.494 87.7621 474.494C88.2857 474.494 88.7597 474.421 89.1839 474.276C89.6082 474.123 89.9761 473.901 90.2876 473.609C90.5992 473.318 90.8345 472.956 90.9936 472.526L94.3544 472.903C94.1423 473.792 93.7379 474.567 93.1413 475.23C92.5514 475.886 91.7957 476.397 90.8743 476.761C89.9529 477.119 88.8989 477.298 87.7124 477.298ZM101.148 456.636V477H97.5487V456.636H101.148ZM118.491 461.727L113.053 477H109.075L103.636 461.727H107.474L110.984 473.072H111.143L114.663 461.727H118.491ZM134.624 461.727L129.185 477H125.208L119.769 461.727H123.607L127.117 473.072H127.276L130.796 461.727H134.624Z" fill="url(#paint0_linear_8_572)"/>
</g>
<path d="M42.2344 539L47.9616 504.091H54.7798L49.0526 539H42.2344ZM26.7571 531.023L27.9162 524.205H56.0071L54.848 531.023H26.7571ZM29.9616 539L35.6889 504.091H42.5071L36.7798 539H29.9616ZM28.7344 518.886L29.8935 512.068H57.9844L56.8253 518.886H28.7344ZM74.2202 539.477C71.4702 539.477 69.027 539.006 66.8906 538.062C64.7656 537.108 63.0952 535.795 61.8793 534.125C60.6634 532.455 60.0497 530.534 60.0384 528.364H69.5838C69.5952 529.034 69.7997 529.636 70.1974 530.17C70.6065 530.693 71.1634 531.102 71.8679 531.398C72.5724 531.693 73.3793 531.841 74.2884 531.841C75.1634 531.841 75.9361 531.687 76.6065 531.381C77.277 531.062 77.7997 530.625 78.1747 530.068C78.5497 529.511 78.7315 528.875 78.7202 528.159C78.7315 527.455 78.5156 526.83 78.0724 526.284C77.6406 525.739 77.0327 525.312 76.2486 525.006C75.4645 524.699 74.5611 524.545 73.5384 524.545H69.9929V518H73.5384C74.4815 518 75.3111 517.847 76.027 517.54C76.7543 517.233 77.3168 516.807 77.7145 516.261C78.1236 515.716 78.3224 515.091 78.3111 514.386C78.3224 513.705 78.1577 513.102 77.8168 512.58C77.4759 512.057 76.9986 511.648 76.3849 511.352C75.7827 511.057 75.0838 510.909 74.2884 510.909C73.4247 510.909 72.652 511.062 71.9702 511.369C71.2997 511.676 70.7713 512.102 70.3849 512.648C69.9986 513.193 69.7997 513.818 69.7884 514.523H60.7202C60.7315 512.386 61.3168 510.5 62.4759 508.864C63.6463 507.227 65.2486 505.943 67.2827 505.011C69.3168 504.08 71.652 503.614 74.2884 503.614C76.8679 503.614 79.1463 504.051 81.1236 504.926C83.1122 505.801 84.6634 507.006 85.777 508.54C86.902 510.062 87.4588 511.807 87.4474 513.773C87.4702 515.727 86.7997 517.33 85.4361 518.58C84.0838 519.83 82.3679 520.568 80.2884 520.795V521.068C83.1065 521.375 85.2259 522.239 86.6463 523.659C88.0668 525.068 88.7656 526.841 88.7429 528.977C88.7543 531.023 88.1406 532.835 86.902 534.415C85.6747 535.994 83.9645 537.233 81.7713 538.131C79.5895 539.028 77.0724 539.477 74.2202 539.477ZM107.565 539.477C105.531 539.477 103.599 539.159 101.77 538.523C99.9517 537.875 98.3381 536.858 96.929 535.472C95.5199 534.085 94.4119 532.278 93.6051 530.051C92.8097 527.824 92.4176 525.125 92.429 521.955C92.4403 519.125 92.804 516.58 93.5199 514.318C94.2472 512.057 95.2756 510.131 96.6051 508.54C97.946 506.949 99.5483 505.733 101.412 504.892C103.276 504.04 105.349 503.614 107.634 503.614C110.202 503.614 112.463 504.108 114.418 505.097C116.372 506.085 117.929 507.409 119.088 509.068C120.259 510.716 120.94 512.534 121.134 514.523H111.793C111.577 513.534 111.077 512.812 110.293 512.358C109.52 511.892 108.634 511.659 107.634 511.659C105.645 511.659 104.185 512.523 103.253 514.25C102.332 515.977 101.861 518.25 101.838 521.068H102.043C102.486 520 103.156 519.085 104.054 518.324C104.952 517.562 105.997 516.977 107.19 516.568C108.384 516.159 109.645 515.955 110.974 515.955C113.088 515.955 114.935 516.432 116.514 517.386C118.105 518.341 119.344 519.648 120.23 521.307C121.116 522.966 121.554 524.864 121.543 527C121.554 529.5 120.963 531.688 119.77 533.562C118.588 535.438 116.946 536.892 114.844 537.926C112.741 538.96 110.315 539.477 107.565 539.477ZM107.497 532.318C108.44 532.318 109.276 532.102 110.003 531.67C110.741 531.239 111.315 530.648 111.724 529.898C112.145 529.148 112.349 528.295 112.338 527.341C112.349 526.375 112.145 525.523 111.724 524.784C111.315 524.034 110.741 523.443 110.003 523.011C109.276 522.58 108.44 522.364 107.497 522.364C106.804 522.364 106.162 522.489 105.571 522.739C104.991 522.977 104.486 523.324 104.054 523.778C103.622 524.222 103.281 524.75 103.031 525.364C102.793 525.966 102.668 526.625 102.656 527.341C102.668 528.295 102.884 529.148 103.304 529.898C103.724 530.648 104.298 531.239 105.026 531.67C105.753 532.102 106.577 532.318 107.497 532.318Z" fill="white"/>
<path d="M141.961 517.682L135.399 542.062H132.744L139.306 517.682H141.961ZM158.947 539.278C157.581 539.278 156.362 539.043 155.288 538.572C154.22 538.102 153.375 537.449 152.752 536.614C152.136 535.772 151.804 534.797 151.758 533.69H154.88C154.92 534.294 155.122 534.817 155.487 535.261C155.858 535.699 156.342 536.037 156.938 536.276C157.535 536.514 158.198 536.634 158.927 536.634C159.729 536.634 160.438 536.494 161.055 536.216C161.678 535.937 162.165 535.55 162.516 535.053C162.868 534.549 163.043 533.969 163.043 533.312C163.043 532.63 162.868 532.03 162.516 531.513C162.172 530.989 161.665 530.578 160.995 530.28C160.332 529.982 159.53 529.832 158.589 529.832H156.869V527.327H158.589C159.344 527.327 160.007 527.191 160.577 526.919C161.154 526.647 161.605 526.269 161.93 525.786C162.254 525.295 162.417 524.722 162.417 524.065C162.417 523.436 162.274 522.889 161.989 522.425C161.711 521.954 161.313 521.586 160.796 521.321C160.286 521.056 159.683 520.923 158.987 520.923C158.324 520.923 157.704 521.046 157.127 521.291C156.557 521.53 156.093 521.875 155.735 522.325C155.377 522.769 155.185 523.303 155.158 523.926H152.185C152.219 522.826 152.543 521.858 153.16 521.023C153.783 520.187 154.605 519.535 155.626 519.064C156.647 518.593 157.78 518.358 159.026 518.358C160.332 518.358 161.459 518.613 162.407 519.124C163.362 519.627 164.097 520.3 164.614 521.142C165.138 521.984 165.397 522.905 165.39 523.906C165.397 525.046 165.078 526.014 164.435 526.81C163.799 527.605 162.951 528.139 161.89 528.411V528.57C163.242 528.775 164.29 529.312 165.032 530.18C165.781 531.049 166.152 532.126 166.146 533.412C166.152 534.532 165.841 535.536 165.211 536.425C164.588 537.313 163.736 538.012 162.656 538.523C161.575 539.027 160.339 539.278 158.947 539.278ZM169.904 539V536.773L176.795 529.634C177.531 528.858 178.137 528.179 178.614 527.595C179.098 527.005 179.46 526.445 179.698 525.915C179.937 525.384 180.056 524.821 180.056 524.224C180.056 523.548 179.897 522.965 179.579 522.474C179.261 521.977 178.826 521.596 178.276 521.331C177.726 521.059 177.106 520.923 176.417 520.923C175.688 520.923 175.051 521.072 174.508 521.371C173.964 521.669 173.547 522.09 173.255 522.634C172.963 523.177 172.817 523.813 172.817 524.543H169.884C169.884 523.303 170.169 522.219 170.739 521.291C171.309 520.363 172.092 519.644 173.086 519.134C174.08 518.616 175.21 518.358 176.477 518.358C177.756 518.358 178.883 518.613 179.857 519.124C180.838 519.627 181.604 520.317 182.154 521.192C182.704 522.06 182.979 523.041 182.979 524.135C182.979 524.891 182.837 525.63 182.552 526.352C182.273 527.075 181.786 527.88 181.09 528.768C180.394 529.65 179.426 530.721 178.187 531.98L174.14 536.216V536.365H183.308V539H169.904ZM186.211 535.023V532.537L195.011 518.636H196.969V522.295H195.727L189.433 532.259V532.418H201.494V535.023H186.211ZM195.866 539V534.267L195.886 533.134V518.636H198.799V539H195.866Z" fill="#CCCCCC"/>
<defs>
<filter id="filter0_d_8_572" x="21.571" y="450.636" width="123.053" height="42.0708" filterUnits="userSpaceOnUse" color-interpolation-filters="sRGB">
<feFlood flood-opacity="0" result="BackgroundImageFix"/>
<feColorMatrix in="SourceAlpha" type="matrix" values="0 0 0 0 0 0 0 0 0 0 0 0 0 0 0 0 0 0 127 0" result="hardAlpha"/>
<feOffset dx="2" dy="2"/>
<feGaussianBlur stdDeviation="4"/>
<feComposite in2="hardAlpha" operator="out"/>
<feColorMatrix type="matrix" values="0 0 0 0 0 0 0 0 0 0 0 0 0 0 0 0 0 0 0.5 0"/>
<feBlend mode="normal" in2="BackgroundImageFix" result="effect1_dropShadow_8_572"/>
<feBlend mode="normal" in="SourceGraphic" in2="effect1_dropShadow_8_572" result="shape"/>
</filter>
<linearGradient id="paint0_linear_8_572" x1="26" y1="471.375" x2="73.0545" y2="525.362" gradientUnits="userSpaceOnUse">
<stop offset="0.0001" stop-color="#FF7245"/>
<stop offset="0.510417" stop-color="#D154A7"/>
<stop offset="1" stop-color="#1882FF"/>
</linearGradient>
</defs>
</svg>
